<svg xmlns="http://www.w3.org/2000/svg" fill="currentColor" viewBox="0 0 16.5 16.5">
  <path d="m8 0-.52.02.06 1a7 7 0 0 1 .92 0l.06-1A8 8 0 0 0 8 0M6.44.15q-.52.1-1.01.27l.32.95q.43-.15.88-.24L6.44.15zm4.13.27a8 8 0 0 0-1-.27l-.2.98q.45.1.88.24zm1.87.93a8 8 0 0 0-.9-.53l-.44.9q.4.2.79.46zM4.46.82q-.47.24-.9.53l.55.83a7 7 0 0 1 .8-.46zM2.73 2q-.4.34-.74.73l.75.66q.3-.34.64-.64zm11.29.73a8 8 0 0 0-.75-.74l-.66.76q.35.3.65.64zm1.16 1.74a8 8 0 0 0-.53-.9l-.83.55q.26.38.46.8l.9-.45zm-13.83-.9q-.3.43-.53.9l.9.44q.2-.4.46-.79zM.42 5.43a8 8 0 0 0-.27 1l.98.2q.1-.45.24-.88zm15.43 1.01a8 8 0 0 0-.27-1.01l-.95.32q.15.43.24.88zM.02 7.48a8 8 0 0 0 0 1.04l1-.06a7 7 0 0 1 0-.92zM16 8a8 8 0 0 0-.02-.52l-1 .06a7 7 0 0 1 0 .92l1 .06A8 8 0 0 0 16 8M.15 9.56q.1.52.27 1.01l.95-.32a7 7 0 0 1-.24-.88l-.98.2zm15.43 1.01q.16-.5.27-1l-.98-.2q-.1.45-.24.88zm-14.76.97a8 8 0 0 0 .53.9l.83-.55a7 7 0 0 1-.46-.8zm13.83.9q.3-.43.53-.9l-.9-.44q-.2.4-.46.79zm-12.67.83q.35.4.74.74l.66-.75a7 7 0 0 1-.64-.65zm11.3.74q.39-.34.73-.74l-.75-.66q-.3.35-.65.65zm-1.74 1.17q.47-.24.9-.53l-.55-.83a7 7 0 0 1-.8.46zm-7.99-.53q.44.3.91.53l.44-.9a7 7 0 0 1-.79-.46zm1.88.93q.5.16 1 .27l.2-.98a7 7 0 0 1-.88-.24zm4.13.27a8 8 0 0 0 1.01-.27l-.32-.95a7 7 0 0 1-.88.24l.2.98zm-2.08.13a8 8 0 0 0 1.04 0l-.06-1a7 7 0 0 1-.92 0zM8.5 4.5a.5.5 0 0 0-1 0v3h-3a.5.5 0 0 0 0 1h3v3a.5.5 0 0 0 1 0v-3h3a.5.5 0 0 0 0-1h-3z"/>
</svg>
